# Blender v2.83.5 OBJ File: 'cylinderHalfQuater.blend'
# www.blender.org
mtllib cylinderHalfQuater.mtl
o Cylinder_Cylinder.001
v 0.000000 1.000000 -1.000000
v 0.000000 1.000000 1.000000
v 0.195090 0.980785 -1.000000
v 0.195090 0.980785 1.000000
v 0.382683 0.923880 -1.000000
v 0.382683 0.923879 1.000000
v 0.555570 0.831470 -1.000000
v 0.555570 0.831470 1.000000
v 0.707107 0.707107 -1.000000
v 0.707107 0.707107 1.000000
v 0.000372 -0.005314 -1.000000
v -0.000148 0.001502 1.000000
v -0.001767 0.999826 -1.000000
v -0.000885 0.999913 1.000000
v -0.001767 -0.005322 -1.000000
v -0.000885 0.001499 1.000000
v 0.712643 0.700360 -1.000000
v 0.707189 0.707007 1.000000
v 0.001660 0.001509 1.000000
v 0.006963 -0.005289 -1.000000
vt 1.000000 0.500000
vt 1.000000 1.000000
vt 0.968750 1.000000
vt 0.968750 0.500000
vt 0.937500 1.000000
vt 0.937500 0.500000
vt 0.906250 1.000000
vt 0.906250 0.500000
vt 0.875000 1.000000
vt 0.875000 0.500000
vt 0.630774 0.374740
vt 0.873609 0.500000
vt 0.419725 0.419682
vt 0.501058 1.000000
vt 0.000283 0.500000
vt 0.629728 0.373639
vt 0.249788 0.250360
vt 0.000142 1.000000
vt 0.000000 1.000000
vt 0.000000 0.500000
vt 0.500606 1.000000
vt 0.500421 1.000000
vt 0.629985 0.373909
vt 0.296822 0.485388
vt 0.250000 0.490000
vt 0.249788 0.489979
vt 0.249965 0.250360
vt 0.250398 0.250362
vt 0.419706 0.419706
vt 0.383337 0.449553
vt 0.341844 0.471731
vt 0.874979 1.000000
vt 0.750000 0.490000
vt 0.796822 0.485388
vt 0.841844 0.471731
vt 0.883337 0.449553
vt 0.919706 0.419706
vt 0.921034 0.418086
vt 0.751671 0.248731
vt 0.750089 0.248725
vt 0.749576 0.248723
vt 0.749576 0.489958
vn 0.0980 0.9952 0.0000
vn 0.2903 0.9569 0.0000
vn 0.4714 0.8819 0.0000
vn 0.6344 0.7730 0.0000
vn 0.7071 -0.7071 0.0043
vn -1.0000 0.0000 0.0004
vn -0.0980 0.9952 0.0000
vn 0.0038 -1.0000 0.0034
vn -0.0000 0.0000 1.0000
vn 0.7730 0.6344 0.0000
vn 0.0000 0.0000 -1.0000
usemtl None
s 1
f 1/1/1 2/2/1 4/3/1 3/4/1
f 3/4/2 4/3/2 6/5/2 5/6/2
f 5/6/3 6/5/3 8/7/3 7/8/3
f 7/8/4 8/7/4 10/9/4 9/10/4
f 20/11/5 17/12/5 18/13/5 19/14/5
f 13/15/6 15/16/6 16/17/6 14/18/6
f 13/15/7 14/18/7 2/19/7 1/20/7
f 19/14/8 12/21/8 16/22/8 15/16/8 11/23/8 20/11/8
f 4/24/9 2/25/9 14/26/9 16/17/9 12/27/9 19/28/9 18/13/9 10/29/9 8/30/9 6/31/9
f 9/10/10 10/9/10 18/32/10 17/12/10
f 1/33/11 3/34/11 5/35/11 7/36/11 9/37/11 17/38/11 20/39/11 11/40/11 15/41/11 13/42/11
