# Blender v2.83.5 OBJ File: 'cylinderQuater.blend'
# www.blender.org
mtllib cylinderQuater.mtl
o Cylinder_Cylinder.002
v 0.000000 1.000000 -1.000000
v 0.000000 1.000000 1.000000
v 0.195090 0.980785 -1.000000
v 0.195090 0.980785 1.000000
v 0.382683 0.923880 -1.000000
v 0.382683 0.923879 1.000000
v 0.555570 0.831470 -1.000000
v 0.555570 0.831470 1.000000
v 0.707107 0.707107 -1.000000
v 0.707107 0.707107 1.000000
v 0.831470 0.555570 -1.000000
v 0.831470 0.555570 1.000000
v 0.923880 0.382683 -1.000000
v 0.923880 0.382683 1.000000
v 0.980785 0.195090 -1.000000
v 0.980785 0.195090 1.000000
v 1.000000 0.000000 -1.000000
v 0.999480 0.005282 1.000000
v 1.000000 0.000000 -0.549917
v 0.999849 -0.001535 -1.000000
v 0.000372 -0.005314 -1.000000
v 0.999924 -0.000767 -0.774958
v 0.999740 0.002641 0.225042
v -0.000148 0.001502 1.000000
v -0.001767 0.999826 -1.000000
v -0.000885 0.999913 1.000000
v -0.001767 -0.005322 -1.000000
v -0.000885 0.001499 1.000000
vt 1.000000 0.500000
vt 1.000000 1.000000
vt 0.968750 1.000000
vt 0.968750 0.500000
vt 0.937500 1.000000
vt 0.937500 0.500000
vt 0.906250 1.000000
vt 0.906250 0.500000
vt 0.875000 1.000000
vt 0.875000 0.500000
vt 0.843750 1.000000
vt 0.843750 0.500000
vt 0.812500 1.000000
vt 0.812500 0.500000
vt 0.781250 1.000000
vt 0.781250 0.500000
vt 0.000283 0.500000
vt 0.629728 0.373639
vt 0.249788 0.250360
vt 0.000142 1.000000
vt 0.000000 1.000000
vt 0.000000 0.500000
vt 0.750000 0.500000
vt 0.750000 0.612521
vt 0.749877 0.556260
vt 0.749754 0.500000
vt 0.750846 1.000000
vt 0.750423 0.806260
vt 0.500606 1.000000
vt 0.500421 1.000000
vt 0.629985 0.373909
vt 0.296822 0.485388
vt 0.250000 0.490000
vt 0.249788 0.489979
vt 0.249965 0.250360
vt 0.489875 0.251268
vt 0.485388 0.296822
vt 0.471731 0.341844
vt 0.449553 0.383337
vt 0.419706 0.419706
vt 0.383337 0.449553
vt 0.341844 0.471731
vt 0.750000 0.490000
vt 0.796822 0.485388
vt 0.841844 0.471731
vt 0.883337 0.449553
vt 0.919706 0.419706
vt 0.949553 0.383337
vt 0.971731 0.341844
vt 0.985388 0.296822
vt 0.990000 0.250000
vt 0.989964 0.249632
vt 0.750089 0.248725
vt 0.749576 0.248723
vt 0.749576 0.489958
vn 0.0980 0.9952 0.0000
vn 0.2903 0.9569 0.0000
vn 0.4714 0.8819 0.0000
vn 0.6344 0.7730 0.0000
vn 0.7730 0.6344 0.0000
vn 0.8819 0.4714 0.0000
vn 0.9569 0.2903 0.0000
vn -1.0000 0.0000 0.0004
vn -0.0980 0.9952 0.0000
vn 0.9952 -0.0980 -0.0000
vn 0.9952 0.0980 0.0000
vn 0.0038 -1.0000 0.0034
vn 0.0000 0.0000 1.0000
vn 0.0000 0.0000 -1.0000
usemtl None
s 1
f 1/1/1 2/2/1 4/3/1 3/4/1
f 3/4/2 4/3/2 6/5/2 5/6/2
f 5/6/3 6/5/3 8/7/3 7/8/3
f 7/8/4 8/7/4 10/9/4 9/10/4
f 9/10/5 10/9/5 12/11/5 11/12/5
f 11/12/6 12/11/6 14/13/6 13/14/6
f 13/14/7 14/13/7 16/15/7 15/16/7
f 25/17/8 27/18/8 28/19/8 26/20/8
f 25/17/9 26/20/9 2/21/9 1/22/9
f 17/23/10 19/24/10 22/25/10 20/26/10
f 15/16/11 16/15/11 18/27/11 23/28/11 19/24/11 17/23/11
f 18/27/12 24/29/12 28/30/12 27/18/12 21/31/12 20/26/12 22/25/12 19/24/12 23/28/12
f 4/32/13 2/33/13 26/34/13 28/19/13 24/35/13 18/36/13 16/37/13 14/38/13 12/39/13 10/40/13 8/41/13 6/42/13
f 1/43/14 3/44/14 5/45/14 7/46/14 9/47/14 11/48/14 13/49/14 15/50/14 17/51/14 20/52/14 21/53/14 27/54/14 25/55/14
